<svg width="256" height="256" viewBox="0 0 256 256" xmlns="http://www.w3.org/2000/svg">
  <defs>
    <linearGradient id="blueGradient" x1="0%" y1="0%" x2="100%" y2="100%">
      <stop offset="0%" style="stop-color:#5A7A9A;stop-opacity:1" />
      <stop offset="100%" style="stop-color:#3E5A7A;stop-opacity:1" />
    </linearGradient>
    <linearGradient id="greenGradient" x1="0%" y1="0%" x2="100%" y2="100%">
      <stop offset="0%" style="stop-color:#8BC34A;stop-opacity:1" />
      <stop offset="100%" style="stop-color:#689F38;stop-opacity:1" />
    </linearGradient>
  </defs>
  
  <!-- Background divided into 4 quadrants -->
  <!-- Top Left - Network Topology (Blue) -->
  <rect x="0" y="0" width="128" height="128" fill="url(#blueGradient)"/>
  
  <!-- Top Right - Target/Monitoring (Green) -->
  <rect x="128" y="0" width="128" height="128" fill="url(#greenGradient)"/>
  
  <!-- Bottom Left - Signal/WiFi (Green) -->
  <rect x="0" y="128" width="128" height="128" fill="url(#greenGradient)"/>
  
  <!-- Bottom Right - Upload/Download (Blue) -->
  <rect x="128" y="128" width="128" height="128" fill="url(#blueGradient)"/>
  
  <!-- Top Left Icon: Network Topology -->
  <g transform="translate(64, 64)">
    <!-- Central node -->
    <rect x="-12" y="-25" width="24" height="20" rx="4" fill="white"/>
    <!-- Connection lines -->
    <line x1="0" y1="-5" x2="-30" y2="20" stroke="white" stroke-width="3"/>
    <line x1="0" y1="-5" x2="30" y2="20" stroke="white" stroke-width="3"/>
    <!-- Left node -->
    <rect x="-42" y="15" width="24" height="20" rx="4" fill="white"/>
    <!-- Right node -->
    <rect x="18" y="15" width="24" height="20" rx="4" fill="white"/>
  </g>
  
  <!-- Top Right Icon: Target/Monitoring -->
  <g transform="translate(192, 64)">
    <!-- Outer circle -->
    <circle cx="0" cy="0" r="35" fill="none" stroke="white" stroke-width="6"/>
    <!-- Middle circle -->
    <circle cx="0" cy="0" r="22" fill="none" stroke="white" stroke-width="4"/>
    <!-- Inner circle -->
    <circle cx="0" cy="0" r="10" fill="white"/>
    <!-- Crosshair lines -->
    <line x1="-45" y1="0" x2="-35" y2="0" stroke="white" stroke-width="4"/>
    <line x1="35" y1="0" x2="45" y2="0" stroke="white" stroke-width="4"/>
    <line x1="0" y1="-45" x2="0" y2="-35" stroke="white" stroke-width="4"/>
    <line x1="0" y1="35" x2="0" y2="45" stroke="white" stroke-width="4"/>
  </g>
  
  <!-- Bottom Left Icon: WiFi/Signal -->
  <g transform="translate(64, 192)">
    <!-- Signal arcs -->
    <path d="M -35,-10 A 40,40 0 0,1 35,-10" fill="none" stroke="white" stroke-width="6" stroke-linecap="round"/>
    <path d="M -25,-5 A 28,28 0 0,1 25,-5" fill="none" stroke="white" stroke-width="5" stroke-linecap="round"/>
    <path d="M -15,0 A 16,16 0 0,1 15,0" fill="none" stroke="white" stroke-width="4" stroke-linecap="round"/>
    <!-- Central dot -->
    <circle cx="0" cy="5" r="6" fill="white"/>
    <!-- Side indicators -->
    <circle cx="-25" cy="15" r="4" fill="white"/>
    <circle cx="25" cy="15" r="4" fill="white"/>
  </g>
  
  <!-- Bottom Right Icon: Upload/Download Arrows -->
  <g transform="translate(192, 192)">
    <!-- Upload arrow -->
    <path d="M -15,10 L -15,-5 L -25,-5 L -10,-20 L 5,-5 L -5,-5 L -5,10 Z" fill="white"/>
    <!-- Download arrow -->
    <path d="M 15,-10 L 15,5 L 25,5 L 10,20 L -5,5 L 5,5 L 5,-10 Z" fill="white"/>
    <!-- Base rectangles -->
    <rect x="-20" y="15" width="15" height="8" rx="2" fill="white"/>
    <rect x="5" y="-23" width="15" height="8" rx="2" fill="white"/>
  </g>
  
  <!-- Subtle border lines between quadrants -->
  <line x1="128" y1="0" x2="128" y2="256" stroke="white" stroke-width="2" opacity="0.3"/>
  <line x1="0" y1="128" x2="256" y2="128" stroke="white" stroke-width="2" opacity="0.3"/>
  
</svg>